<svg width="275" height="51" viewBox="0 0 275 51" fill="none" xmlns="http://www.w3.org/2000/svg">
<path d="M43.1036 31.5361C42.2212 32.3909 41.8198 33.6243 42.0294 34.8383L44.0039 46.3603C44.5304 49.4074 41.3273 51.728 38.5939 50.2882L28.2453 44.8441C27.1581 44.2753 25.858 44.2753 24.7708 44.8441L14.4221 50.2882C11.9617 51.585 9.12267 49.8364 8.96828 47.2492C8.94228 46.9632 8.96178 46.6674 9.01216 46.3603L10.9915 34.8383C11.193 33.6243 10.7916 32.3909 9.91734 31.5361L1.54318 23.3732C-0.673457 21.2151 0.553496 17.4578 3.61194 17.0125L15.1811 15.3322C16.395 15.1534 17.4416 14.3945 17.9844 13.2943L23.1652 2.80588C24.5319 0.0334558 28.4793 0.0334558 29.8525 2.80588L35.0268 13.2943C35.568 14.3912 36.6162 15.1534 37.8285 15.3322L49.4041 17.0125C49.6966 17.0548 49.9729 17.1279 50.2297 17.2287C52.6706 18.1582 53.475 21.4182 51.4696 23.3732L43.1036 31.5361Z" fill="#FBA705"/>
<path d="M98.6852 31.5361C97.8044 32.3909 97.4013 33.6243 97.611 34.8383L99.5855 46.3603C100.112 49.4074 96.9089 51.728 94.1755 50.2882L83.8285 44.8441C82.7397 44.2753 81.4396 44.2753 80.3524 44.8441L70.0037 50.2882C67.5433 51.585 64.7043 49.8364 64.5515 47.2492C64.5239 46.9632 64.545 46.6674 64.5937 46.3603L66.5731 34.8383C66.7763 33.6243 66.3732 32.3909 65.4989 31.5361L57.1264 23.3732C54.9081 21.2151 56.1351 17.4578 59.1935 17.0125L70.7626 15.3322C71.9766 15.1534 73.0232 14.3945 73.5659 13.2943L78.7468 2.80588C80.1135 0.0334558 84.0609 0.0334558 85.4341 2.80588L90.6084 13.2943C91.1496 14.3912 92.1978 15.1534 93.4117 15.3322L104.986 17.0125C105.28 17.0548 105.554 17.1279 105.811 17.2287C108.252 18.1582 109.057 21.4182 107.051 23.3732L98.6852 31.5361Z" fill="#FBA705"/>
<path d="M154.263 31.5361C153.382 32.3909 152.979 33.6243 153.189 34.8383L155.165 46.3603C155.69 49.4074 152.487 51.728 149.754 50.2882L139.407 44.8441C138.319 44.2753 137.019 44.2753 135.931 44.8441L125.583 50.2882C123.121 51.585 120.282 49.8364 120.13 47.2492C120.102 46.9632 120.123 46.6674 120.172 46.3603L122.151 34.8383C122.354 33.6243 121.951 32.3909 121.077 31.5361L112.705 23.3732C110.486 21.2151 111.713 17.4578 114.772 17.0125L126.341 15.3322C127.555 15.1534 128.603 14.3945 129.144 13.2943L134.325 2.80588C135.692 0.0334558 139.639 0.0334558 141.012 2.80588L146.187 13.2943C146.728 14.3912 147.776 15.1534 148.99 15.3322L160.565 17.0125C160.858 17.0548 161.134 17.1279 161.389 17.2287C163.83 18.1582 164.635 21.4182 162.629 23.3732L154.263 31.5361Z" fill="#FBA705"/>
<path d="M209.845 31.5361C208.964 32.3909 208.561 33.6243 208.771 34.8383L210.747 46.3603C211.272 49.4074 208.071 51.728 205.337 50.2882L194.989 44.8441C193.901 44.2753 192.601 44.2753 191.514 44.8441L181.165 50.2882C178.705 51.585 175.864 49.8364 175.712 47.2492C175.686 46.9632 175.705 46.6674 175.755 46.3603L177.733 34.8383C177.936 33.6243 177.533 32.3909 176.659 31.5361L168.286 23.3732C166.068 21.2151 167.295 17.4578 170.355 17.0125L181.923 15.3322C183.137 15.1534 184.185 14.3945 184.726 13.2943L189.907 2.80588C191.274 0.0334558 195.221 0.0334558 196.594 2.80588L201.768 13.2943C202.311 14.3912 203.358 15.1534 204.572 15.3322L216.147 17.0125C216.44 17.0548 216.716 17.1279 216.971 17.2287C219.412 18.1582 220.217 21.4182 218.213 23.3732L209.845 31.5361Z" fill="#FBA705"/>
<path d="M265.423 31.5361C264.543 32.3909 264.141 33.6243 264.351 34.8383L266.325 46.3603C266.85 49.4074 263.649 51.728 260.915 50.2882L250.567 44.8441C249.479 44.2753 248.179 44.2753 247.092 44.8441L236.744 50.2882C234.283 51.585 231.442 49.8364 231.29 47.2492C231.264 46.9632 231.283 46.6674 231.334 46.3603L233.311 34.8383C233.514 33.6243 233.113 32.3909 232.237 31.5361L223.865 23.3732C221.646 21.2151 222.873 17.4578 225.933 17.0125L237.502 15.3322C238.715 15.1534 239.763 14.3945 240.304 13.2943L245.485 2.80588C246.852 0.0334558 250.799 0.0334558 252.172 2.80588L257.347 13.2943C257.889 14.3912 258.936 15.1534 260.15 15.3322L271.726 17.0125C272.018 17.0548 272.294 17.1279 272.549 17.2287C274.99 18.1582 275.796 21.4182 273.791 23.3732L265.423 31.5361Z" fill="#FBA705"/>
<path d="M50.2329 17.2287C41.0706 32.022 26.3439 43.0093 8.96828 47.2492C8.94228 46.9632 8.96178 46.6674 9.01216 46.3603L10.9915 34.8383C11.193 33.6243 10.7916 32.3909 9.91734 31.5361L1.54318 23.3732C-0.673457 21.2151 0.553496 17.4578 3.61194 17.0125L15.1811 15.3322C16.395 15.1534 17.4416 14.3945 17.9844 13.2943L23.1652 2.80588C24.5319 0.0334558 28.4793 0.0334558 29.8525 2.80588L35.0252 13.2943C35.568 14.3912 36.6162 15.1534 37.8285 15.3322L49.4041 17.0125C49.7031 17.0548 49.9761 17.1247 50.2329 17.2287Z" fill="#FFCE00"/>
<path d="M105.815 17.2287C96.6538 32.022 81.9255 43.0093 64.5515 47.2492C64.5239 46.9632 64.545 46.6674 64.5937 46.3603L66.5731 34.8383C66.7763 33.6243 66.3732 32.3909 65.4989 31.5361L57.1264 23.3732C54.9081 21.2151 56.1351 17.4578 59.1935 17.0125L70.7626 15.3322C71.9766 15.1534 73.0232 14.3945 73.5659 13.2943L78.7468 2.80588C80.1135 0.0334558 84.0609 0.0334558 85.4341 2.80588L90.6084 13.2943C91.1496 14.3912 92.1978 15.1534 93.4117 15.3322L104.986 17.0125C105.283 17.0548 105.558 17.1247 105.815 17.2287Z" fill="#FFCE00"/>
<path d="M161.393 17.2287C152.232 32.022 137.504 43.0093 120.13 47.2492C120.102 46.9632 120.123 46.6674 120.172 46.3603L122.151 34.8383C122.354 33.6243 121.951 32.3909 121.077 31.5361L112.705 23.3732C110.486 21.2151 111.713 17.4578 114.772 17.0125L126.341 15.3322C127.555 15.1534 128.603 14.3945 129.144 13.2943L134.325 2.80588C135.692 0.0334558 139.639 0.0334558 141.012 2.80588L146.187 13.2943C146.728 14.3912 147.776 15.1534 148.99 15.3322L160.565 17.0125C160.861 17.0548 161.137 17.1247 161.393 17.2287Z" fill="#FFCE00"/>
<path d="M216.973 17.2287C207.812 32.022 193.084 43.0093 175.71 47.2492C175.684 46.9632 175.703 46.6674 175.754 46.3603L177.731 34.8383C177.934 33.6243 177.531 32.3909 176.657 31.5361L168.285 23.3732C166.066 21.2151 167.293 17.4578 170.353 17.0125L181.921 15.3322C183.135 15.1534 184.183 14.3945 184.724 13.2943L189.905 2.80588C191.272 0.0334558 195.219 0.0334558 196.592 2.80588L201.767 13.2943C202.309 14.3912 203.356 15.1534 204.57 15.3322L216.145 17.0125C216.444 17.0548 216.717 17.1247 216.973 17.2287Z" fill="#FFCE00"/>
<path d="M272.554 17.2287C263.392 32.022 248.665 43.0093 231.29 47.2492C231.264 46.9632 231.283 46.6674 231.334 46.3603L233.311 34.8383C233.514 33.6243 233.113 32.3909 232.237 31.5361L223.865 23.3732C221.646 21.2151 222.873 17.4578 225.933 17.0125L237.502 15.3322C238.715 15.1534 239.763 14.3945 240.304 13.2943L245.485 2.80588C246.852 0.0334558 250.799 0.0334558 252.172 2.80588L257.347 13.2943C257.889 14.3912 258.936 15.1534 260.15 15.3322L271.726 17.0125C272.021 17.0548 272.298 17.1247 272.554 17.2287Z" fill="#FFCE00"/>
</svg>
