<svg width="48" height="48" viewBox="0 0 48 48" fill="none" xmlns="http://www.w3.org/2000/svg">
<path d="M24 40C22.4 38.7333 20.6667 37.75 18.8 37.05C16.9333 36.35 15 36 13 36C11.6 36 10.225 36.1833 8.875 36.55C7.525 36.9167 6.23333 37.4333 5 38.1C4.3 38.4667 3.625 38.45 2.975 38.05C2.325 37.65 2 37.0667 2 36.3V12.2C2 11.8333 2.09167 11.4833 2.275 11.15C2.45833 10.8167 2.73333 10.5667 3.1 10.4C4.63333 9.6 6.23333 9 7.9 8.6C9.56667 8.2 11.2667 8 13 8C14.9333 8 16.825 8.25 18.675 8.75C20.525 9.25 22.3 10 24 11V36.3C25.7 35.2 27.4833 34.375 29.35 33.825C31.2167 33.275 33.1 33 35 33C36.2 33 37.5083 33.1167 38.925 33.35C40.3417 33.5833 41.7 34.0667 43 34.8V9.55C43.3333 9.68333 43.6583 9.81667 43.975 9.95C44.2917 10.0833 44.6 10.2333 44.9 10.4C45.2333 10.6 45.5 10.8583 45.7 11.175C45.9 11.4917 46 11.8333 46 12.2V36.3C46 37.0667 45.675 37.65 45.025 38.05C44.375 38.45 43.7 38.4667 43 38.1C41.7667 37.4333 40.475 36.9167 39.125 36.55C37.775 36.1833 36.4 36 35 36C33 36 31.0667 36.35 29.2 37.05C27.3333 37.75 25.6 38.7333 24 40ZM27 31.65V14L40 1V20.35L27 31.65Z" fill="#215F4A"/>
</svg>
