<svg width="48" height="48" viewBox="0 0 48 48" fill="none" xmlns="http://www.w3.org/2000/svg">
<path d="M4 44V7C4 6.23333 4.3 5.54167 4.9 4.925C5.5 4.30833 6.2 4 7 4H41C41.7667 4 42.4583 4.30833 43.075 4.925C43.6917 5.54167 44 6.23333 44 7V33C44 33.7667 43.6917 34.4583 43.075 35.075C42.4583 35.6917 41.7667 36 41 36H12L4 44ZM23 29.5H25V10.5H23V29.5ZM17.5 25.5H19.5V14.5H17.5V25.5ZM12.5 21.5H14.5V18.5H12.5V21.5ZM28.5 25.5H30.5V14.5H28.5V25.5ZM33.5 21.5H35.5V18.5H33.5V21.5Z" fill="#215F4A"/>
</svg>
