<svg width="48" height="48" viewBox="0 0 48 48" fill="none" xmlns="http://www.w3.org/2000/svg">
<path d="M33.1 20.2L41.1 15.6L33.1 11L25.1 15.6L33.1 20.2ZM33.1 26.3L38.6 23.1V18.9L33.1 22.1L27.6 18.9V23.1L33.1 26.3ZM4.05005 40V34.8C5.43895 34.8 6.6195 35.3056 7.5917 36.3167C8.56393 37.3278 9.05005 38.5556 9.05005 40H4.05005ZM14.05 40C14.05 37.178 13.0834 34.7725 11.15 32.7835C9.21672 30.7945 6.85005 29.8 4.05005 29.8V26.8C7.67148 26.8 10.7435 28.0917 13.2661 30.675C15.7887 33.2583 17.05 36.3667 17.05 40H14.05ZM22.05 40C22.05 37.5 21.5834 35.1417 20.65 32.925C19.7167 30.7083 18.4334 28.775 16.8 27.125C15.1667 25.475 13.2584 24.175 11.075 23.225C8.89172 22.275 6.55005 21.8 4.05005 21.8V18.8C6.95005 18.8 9.67505 19.3583 12.225 20.475C14.775 21.5917 17 23.1083 18.9 25.025C20.8 26.9417 22.3 29.1917 23.4 31.775C24.5 34.3583 25.05 37.1 25.05 40H22.05ZM30.05 40C30.05 36.4 29.375 33.0083 28.025 29.825C26.675 26.6417 24.825 23.8583 22.475 21.475C20.125 19.0917 17.3697 17.2167 14.2091 15.85C11.0485 14.4833 7.66218 13.8 4.05005 13.8V11C4.05005 10.175 4.3438 9.46875 4.9313 8.88125C5.5188 8.29375 6.22505 8 7.05005 8H41.05C41.875 8 42.5813 8.29375 43.1688 8.88125C43.7563 9.46875 44.05 10.175 44.05 11V37C44.05 37.825 43.7563 38.5313 43.1688 39.1188C42.5813 39.7063 41.875 40 41.05 40H30.05Z" fill="#215F4A"/>
</svg>
