<svg xmlns="http://www.w3.org/2000/svg" xmlns:xlink="http://www.w3.org/1999/xlink" width="300" zoomAndPan="magnify" viewBox="0 0 224.87999 225" height="300" preserveAspectRatio="xMidYMid meet" version="1.0"><defs><clipPath id="ec3bd5f3ba"><path d="M 57.625 2.070312 L 167 2.070312 L 167 223 L 57.625 223 Z M 57.625 2.070312 " clip-rule="nonzero"/></clipPath></defs><g clip-path="url(#ec3bd5f3ba)"><path fill="#fab713" d="M 166.3125 197.429688 L 166.285156 197.34375 L 166.285156 197.285156 C 166.277344 196.085938 165.894531 194.835938 165.144531 193.574219 C 161.179688 186.902344 147.742188 182.628906 129.195312 182.144531 C 129.183594 181.996094 129.171875 181.851562 129.15625 181.703125 C 128.933594 179.082031 128.636719 176.425781 127.859375 173.949219 C 127.625 173.386719 127.109375 172.980469 126.402344 172.699219 C 126.261719 172.640625 126.109375 172.59375 125.953125 172.546875 C 125.191406 160.355469 124.019531 139.898438 123.890625 132.984375 L 123.886719 132.578125 L 124.289062 132.539062 C 127.402344 132.238281 129.917969 131.996094 131.660156 131.867188 L 132.664062 131.78125 C 140.976562 131.058594 149.574219 130.3125 155.601562 124.53125 C 156.769531 123.355469 157.554688 122.234375 157.996094 121.125 C 158.355469 120.066406 158.472656 118.855469 158.335938 117.632812 C 158.3125 117.414062 158.269531 116.855469 158.203125 116.015625 C 157.839844 111.425781 156.882812 99.226562 154.910156 90.273438 C 154.550781 88.636719 154.136719 86.9375 153.648438 85.074219 L 153.617188 84.953125 L 153.652344 84.835938 C 153.722656 84.609375 153.789062 84.378906 153.855469 84.152344 C 153.925781 84.421875 154.003906 84.691406 154.074219 84.960938 C 155.519531 80.125 156.71875 75.394531 157.734375 71.128906 C 160.058594 60.042969 163.03125 48.816406 162.324219 37.367188 C 162.105469 33.996094 161.183594 30.714844 159.886719 27.628906 C 158.609375 24.414062 156.78125 21.46875 154.445312 18.980469 C 152.410156 16.914062 150.074219 15.226562 147.582031 13.816406 C 147.679688 13.890625 147.761719 13.980469 147.8125 14.089844 C 147.808594 14.082031 147.808594 14.082031 147.804688 14.074219 C 147.988281 14.292969 148.160156 14.523438 148.324219 14.761719 C 148.011719 14.570312 147.691406 14.382812 147.363281 14.199219 L 147.316406 14.167969 C 147.28125 14.140625 147.230469 14.113281 147.128906 14.066406 C 146.820312 13.894531 146.503906 13.726562 146.1875 13.558594 C 146.578125 13.5 147.011719 13.539062 147.34375 13.683594 C 145.121094 12.445312 142.785156 11.421875 140.429688 10.546875 C 135.816406 9.019531 131.039062 8.089844 126.320312 6.988281 C 120.621094 5.664062 107.6875 3.667969 106.363281 3.445312 C 98.144531 2.050781 88.828125 2.90625 82.203125 8.660156 C 78.746094 11.570312 76.59375 15.742188 74.8125 19.910156 C 72.898438 24.308594 71.347656 28.863281 69.90625 33.449219 C 69.410156 35.027344 68.917969 36.605469 68.425781 38.179688 C 68.566406 37.96875 68.78125 37.769531 69.066406 37.601562 L 68.824219 38.371094 L 68.789062 38.425781 C 68.707031 38.550781 68.664062 38.679688 68.664062 38.804688 L 68.667969 38.875 L 68.644531 38.941406 C 68.589844 39.117188 68.535156 39.292969 68.484375 39.464844 C 68.316406 39.257812 68.230469 39.035156 68.226562 38.808594 C 67.585938 40.855469 66.949219 42.90625 66.316406 44.957031 C 66.429688 44.75 66.617188 44.542969 66.921875 44.34375 C 66.9375 44.328125 66.957031 44.324219 66.976562 44.3125 C 66.894531 44.570312 66.8125 44.828125 66.734375 45.085938 L 66.722656 45.128906 L 66.699219 45.167969 C 66.65625 45.246094 66.632812 45.316406 66.628906 45.378906 L 66.628906 45.433594 L 66.613281 45.484375 C 66.550781 45.679688 66.496094 45.863281 66.4375 46.054688 C 66.273438 45.835938 66.179688 45.601562 66.191406 45.355469 C 65.472656 47.703125 64.761719 50.054688 64.070312 52.414062 C 64.210938 52.230469 64.414062 52.058594 64.679688 51.902344 C 64.617188 52.113281 64.550781 52.328125 64.492188 52.535156 L 64.46875 52.617188 L 64.417969 52.683594 C 64.300781 52.832031 64.253906 52.96875 64.277344 53.097656 L 64.296875 53.199219 L 64.269531 53.300781 C 64.230469 53.429688 64.191406 53.566406 64.152344 53.695312 C 63.984375 53.539062 63.882812 53.363281 63.847656 53.175781 C 63.285156 55.109375 62.742188 57.050781 62.210938 58.992188 C 62.328125 58.820312 62.523438 58.65625 62.792969 58.519531 C 62.738281 58.71875 62.6875 58.910156 62.632812 59.109375 L 62.613281 59.179688 L 62.570312 59.242188 C 62.515625 59.320312 62.496094 59.394531 62.503906 59.484375 L 62.507812 59.558594 L 62.488281 59.632812 C 62.445312 59.796875 62.402344 59.957031 62.359375 60.113281 C 62.183594 59.929688 62.082031 59.726562 62.066406 59.519531 C 61.609375 61.210938 61.160156 62.902344 60.734375 64.605469 C 60.667969 64.894531 60.601562 65.167969 60.542969 65.4375 C 60.667969 65.230469 60.863281 65.035156 61.121094 64.871094 L 60.953125 65.605469 L 60.914062 65.664062 C 60.832031 65.800781 60.800781 65.9375 60.816406 66.070312 L 60.828125 66.148438 L 60.808594 66.226562 C 60.769531 66.40625 60.730469 66.574219 60.691406 66.742188 C 60.515625 66.546875 60.410156 66.339844 60.382812 66.128906 C 59.785156 68.726562 59.429688 70.285156 58.949219 72.726562 C 59.019531 72.425781 59.230469 72.136719 59.558594 71.894531 C 59.5 72.1875 59.441406 72.492188 59.378906 72.8125 L 59.367188 72.867188 C 59.316406 73.125 59.265625 73.390625 59.210938 73.667969 C 58.972656 73.390625 58.882812 73.082031 58.9375 72.78125 C 58.828125 73.335938 58.714844 73.925781 58.589844 74.59375 C 58.113281 77.097656 57.671875 79.617188 57.691406 82.179688 C 57.703125 86.140625 57.785156 90.175781 58.867188 94 C 59.867188 98.214844 61.90625 102.089844 64.769531 105.234375 C 64.949219 105.410156 65.136719 105.570312 65.320312 105.742188 C 65.359375 105.78125 65.398438 105.816406 65.4375 105.851562 C 65.183594 105.5625 65.066406 105.261719 65.109375 104.953125 C 65.203125 105.039062 65.296875 105.128906 65.390625 105.214844 C 65.46875 105.28125 65.695312 105.496094 65.695312 105.496094 L 65.734375 105.597656 C 65.820312 105.847656 65.90625 106.089844 65.996094 106.339844 C 65.949219 106.304688 65.894531 106.269531 65.847656 106.234375 C 65.902344 106.28125 65.957031 106.324219 66.007812 106.371094 C 68.789062 114.191406 71.53125 121.214844 76.175781 127.601562 L 76.203125 127.640625 L 76.21875 127.679688 C 76.539062 128.386719 77.050781 129.050781 77.738281 129.660156 L 77.777344 129.703125 L 77.773438 129.695312 L 77.839844 129.746094 C 78.453125 130.273438 79.21875 130.765625 80.109375 131.203125 L 80.167969 131.234375 C 84.175781 133.195312 90.699219 134.1875 99.5625 134.1875 C 102.074219 134.1875 104.808594 134.109375 107.683594 133.945312 L 108.113281 133.921875 L 108.144531 134.355469 C 108.160156 134.542969 108.179688 134.722656 108.207031 134.898438 L 108.214844 134.933594 L 108.210938 134.972656 C 108.078125 149.042969 108.246094 160.566406 108.746094 171.246094 C 108.792969 172.226562 108.847656 173.246094 108.902344 174.28125 C 108.738281 174.363281 108.59375 174.457031 108.480469 174.566406 C 108.160156 174.859375 108.003906 175.226562 107.933594 175.582031 C 107.910156 175.703125 107.832031 175.804688 107.800781 175.933594 C 107.289062 178.207031 107.074219 180.5625 107.046875 182.917969 C 107.046875 183.066406 107.050781 183.214844 107.046875 183.363281 C 86.613281 186.140625 72.371094 192.851562 69.875 200.886719 C 69.675781 201.523438 69.578125 202.152344 69.582031 202.757812 L 69.582031 202.976562 C 69.585938 203.699219 69.617188 206.195312 69.910156 208.628906 C 70.113281 210.148438 70.554688 211.636719 71.199219 213.019531 C 71.621094 213.730469 71.714844 213.84375 71.839844 213.996094 C 71.886719 214.054688 71.941406 214.121094 72.011719 214.214844 C 74.4375 216.523438 77.648438 217.648438 80.511719 218.457031 C 82.164062 219.089844 88.75 220.390625 92.726562 220.761719 C 93.511719 220.863281 94.230469 220.957031 94.910156 221.046875 C 97.832031 221.433594 100.136719 221.738281 104.457031 221.988281 C 105.796875 222.0625 107.300781 222.101562 108.933594 222.101562 C 108.9375 222.101562 108.933594 222.101562 108.933594 222.101562 C 122.972656 222.101562 144.824219 219.21875 152.203125 216.949219 C 161.515625 214.078125 166.195312 209.675781 166.503906 203.488281 C 166.554688 202.40625 166.460938 198.191406 166.3125 197.429688 Z M 97.261719 3.378906 C 96.722656 3.417969 96.1875 3.464844 95.664062 3.527344 C 95.777344 3.484375 95.898438 3.445312 96.023438 3.417969 C 96.363281 3.339844 96.828125 3.3125 97.261719 3.378906 Z M 76.054688 18.199219 C 75.886719 18.566406 75.722656 18.929688 75.5625 19.292969 C 75.476562 18.9375 75.636719 18.542969 76.054688 18.199219 Z M 73.359375 24.679688 C 73.230469 25.03125 73.097656 25.378906 72.972656 25.722656 C 72.839844 25.367188 72.953125 24.984375 73.359375 24.679688 Z M 71.128906 31.074219 C 71.027344 31.390625 70.921875 31.707031 70.824219 32.015625 C 70.765625 31.691406 70.875 31.363281 71.128906 31.074219 Z M 92.925781 125.300781 L 92.875 125.296875 L 92.828125 125.28125 C 92.53125 125.191406 92.210938 125.132812 91.871094 125.109375 C 86.261719 124.746094 83.554688 119.382812 82.007812 115.382812 L 81.867188 115.027344 C 82.050781 115.089844 82.230469 115.160156 82.414062 115.222656 C 86.175781 116.535156 90 117.644531 93.84375 118.660156 C 100.511719 120.375 107.195312 122.035156 113.90625 123.558594 C 122.625 125.640625 129.636719 125 136.632812 118.742188 C 137.980469 117.453125 139.246094 116.015625 140.449219 114.464844 C 140.40625 114.273438 140.367188 114.085938 140.324219 113.910156 L 140.679688 113.457031 L 140.878906 114.371094 C 141.078125 115.28125 141.335938 116.585938 141.429688 117.609375 C 141.605469 118.6875 141.453125 120.128906 141.386719 120.550781 L 141.382812 120.578125 L 141.375 120.601562 C 141.34375 120.722656 141.300781 120.847656 141.265625 120.933594 C 141.183594 121.171875 140.980469 121.503906 140.769531 121.832031 L 140.746094 121.867188 L 140.71875 121.894531 C 140.304688 122.335938 139.824219 122.707031 139.367188 123.046875 L 139.328125 123.074219 C 139.109375 123.203125 138.851562 123.328125 138.675781 123.410156 C 134.527344 125.324219 127.125 126.257812 116.050781 126.257812 C 107.71875 126.257812 98.863281 125.710938 92.925781 125.300781 Z M 92.925781 125.300781 " fill-opacity="1" fill-rule="nonzero"/></g><path fill="#1b985a" d="M 69.148438 202.761719 C 69.144531 202.121094 69.242188 201.453125 69.457031 200.757812 C 72.308594 191.578125 88.589844 185.421875 107.050781 182.917969 C 107.035156 184.433594 107.09375 185.953125 107.207031 187.445312 C 107.558594 189.882812 107.554688 190.40625 107.816406 191.257812 C 108.191406 191.953125 108.816406 192.433594 109.589844 192.761719 C 109.730469 195.320312 109.792969 197.035156 109.699219 197.277344 C 109.601562 197.539062 109.664062 197.871094 109.695312 198.144531 C 110.011719 200.894531 123.707031 202.050781 126.828125 198.648438 C 128.308594 197.535156 127.792969 195.917969 127.785156 194.113281 C 127.757812 193.285156 127.71875 192.457031 127.679688 191.632812 C 127.746094 191.582031 127.8125 191.53125 127.875 191.476562 C 128.359375 191.050781 128.691406 190.414062 128.84375 189.75 C 129.511719 187.410156 129.375 184.914062 129.222656 182.5 C 129.203125 182.234375 129.179688 181.96875 129.15625 181.703125 C 146.058594 182.140625 161.070312 185.859375 165.519531 193.351562 C 166.332031 194.71875 166.714844 196.03125 166.722656 197.28125 C 166.847656 217.382812 69.292969 222.148438 69.148438 202.761719 Z M 145.25 14.484375 C 147.207031 23.191406 144.078125 41.675781 140.371094 57.601562 C 142.480469 57.777344 144.125 58.351562 144.417969 58.832031 C 144.976562 59.753906 145.488281 60.699219 145.984375 61.652344 C 149.722656 46.671875 151.832031 32.734375 151.484375 26.183594 C 150.890625 22.257812 150.476562 17.242188 147.804688 14.074219 C 147.808594 14.082031 147.808594 14.082031 147.8125 14.089844 C 147.761719 13.984375 147.683594 13.890625 147.582031 13.816406 C 147.511719 13.765625 147.429688 13.722656 147.34375 13.683594 C 146.523438 13.324219 145.050781 13.601562 145.25 14.484375 Z M 109.34375 114.554688 C 96.816406 115.046875 83.238281 109.925781 70.769531 106.105469 C 69.101562 105.59375 65.671875 103.332031 65.144531 104.78125 C 65.011719 105.148438 65.136719 105.507812 65.4375 105.851562 C 65.550781 105.984375 65.6875 106.109375 65.851562 106.234375 C 67.859375 107.808594 73.28125 109.058594 74.605469 109.691406 C 88.542969 114.535156 103.601562 119.105469 118.21875 115.742188 C 124.167969 114.511719 129.910156 106.21875 134.910156 95.039062 C 134.15625 91.613281 133.375 88.191406 132.621094 84.765625 C 127.683594 96.488281 124.074219 115.171875 109.34375 114.554688 Z M 94.527344 11.085938 C 95.414062 8.941406 96.15625 6.53125 97.539062 5.535156 C 97.863281 5.121094 98.382812 4.804688 98.464844 4.261719 C 98.285156 3.324219 96.8125 3.238281 96.023438 3.417969 C 94.484375 3.765625 93.738281 5.285156 93.039062 6.5 C 92.246094 7.820312 91.4375 9.140625 90.820312 10.546875 C 90.367188 12.089844 93.984375 12.179688 94.527344 11.085938 Z M 103.941406 13.105469 C 104.988281 10.714844 105.910156 8.257812 107.234375 5.988281 C 107.675781 5.378906 108.058594 4.761719 107.085938 4.40625 C 106.152344 4.035156 104.839844 4.195312 104.328125 5.117188 C 103.234375 6.597656 102.570312 8.304688 101.929688 9.996094 C 101.582031 10.882812 101.253906 11.777344 100.917969 12.667969 C 100.855469 12.777344 100.84375 12.886719 100.890625 12.996094 C 101.246094 13.957031 103.425781 13.925781 103.941406 13.105469 Z M 110.222656 14.859375 C 110.300781 14.441406 110.382812 14.027344 110.492188 13.621094 C 111.179688 11.089844 112.636719 8.8125 114.265625 6.738281 C 115.050781 5.796875 117 5.394531 117.855469 6.429688 C 118.011719 6.667969 117.898438 6.925781 117.828125 7.167969 C 117.792969 7.296875 117.714844 7.40625 117.609375 7.496094 C 117.339844 7.820312 117.46875 7.644531 116.96875 8.328125 C 115.542969 10.460938 113.984375 12.601562 113.300781 15.078125 C 112.820312 15.753906 111.75 15.773438 111 15.570312 C 110.65625 15.449219 110.238281 15.253906 110.222656 14.859375 Z M 117.839844 7.109375 C 117.839844 7.113281 117.839844 7.117188 117.835938 7.125 C 117.867188 7.007812 117.894531 6.890625 117.839844 7.109375 Z M 123.863281 17.824219 C 124.746094 15.96875 125.773438 14.1875 127.039062 12.542969 C 127.167969 12.316406 127.730469 11.550781 127.882812 11.339844 C 128.246094 10.902344 128.59375 10.453125 128.917969 9.988281 C 129.015625 9.828125 129.03125 9.667969 128.960938 9.503906 C 128.847656 8.941406 128.113281 8.667969 127.582031 8.558594 C 126.300781 8.234375 124.90625 8.625 124.078125 9.628906 C 122.085938 11.859375 120.847656 15.691406 120.570312 17.703125 C 120.953125 18.742188 123.304688 18.707031 123.863281 17.824219 Z M 63.710938 94.582031 C 64.050781 96.132812 64.558594 97.648438 65.296875 99.070312 C 65.675781 100.238281 66.96875 100.566406 68.125 100.390625 C 68.785156 100.304688 69.898438 99.871094 69.550781 99.070312 C 69.21875 98.367188 68.847656 97.675781 68.558594 96.957031 C 67.773438 94.898438 67.648438 93.976562 67.3125 91.617188 C 66.941406 88.707031 67.21875 84.878906 67.886719 82.976562 C 68.0625 82.417969 68.292969 81.875 68.511719 81.332031 C 68.597656 81.191406 68.609375 81.046875 68.550781 80.90625 C 68.113281 79.65625 65.21875 79.695312 64.570312 80.761719 C 62.664062 85.113281 62.765625 90.023438 63.710938 94.582031 Z M 72.914062 91.800781 C 72.664062 94.507812 72.675781 97.234375 73.367188 99.882812 C 73.53125 100.542969 73.632812 101.222656 73.886719 101.859375 C 73.894531 101.867188 73.894531 101.878906 73.902344 101.890625 C 73.90625 101.902344 73.90625 101.910156 73.910156 101.921875 C 73.910156 101.914062 73.90625 101.90625 73.90625 101.898438 C 74.003906 102.113281 74.207031 102.289062 74.429688 102.394531 C 75.390625 102.886719 77.582031 102.898438 77.859375 101.648438 C 77.589844 100.023438 77.109375 98.421875 76.976562 96.773438 C 76.765625 94.644531 77.160156 92.507812 77.445312 90.402344 C 77.914062 87.335938 78.179688 85.5625 78.96875 83.042969 C 79.558594 81.183594 75.085938 81.046875 74.449219 82.390625 C 73.558594 85.460938 73.167969 88.628906 72.914062 91.800781 Z M 84.644531 105.609375 C 84.824219 106.316406 85.449219 106.699219 86.191406 106.699219 C 86.847656 106.785156 88.238281 106.507812 87.949219 105.648438 C 88.058594 106.113281 87.960938 105.527344 87.953125 105.332031 C 87.78125 102.898438 87.046875 100.546875 86.878906 98.117188 C 86.628906 93.351562 87.535156 88.613281 88.203125 83.910156 C 88.011719 82.445312 84.269531 82.46875 84.082031 83.910156 C 83.222656 90.171875 81.992188 96.601562 83.691406 102.832031 C 83.914062 103.78125 84.269531 104.707031 84.644531 105.609375 Z M 95.5625 85.546875 C 93.925781 91.691406 92.828125 98.082031 93.46875 104.425781 C 93.617188 105.753906 93.839844 107.585938 94.171875 107.859375 C 94.996094 108.941406 98.324219 108.914062 98.59375 107.394531 C 98.183594 104.796875 97.953125 102.171875 98.035156 99.546875 C 98.167969 95.691406 98.664062 91.839844 99.527344 88.066406 C 99.703125 87.332031 99.882812 86.601562 100.0625 85.867188 C 100.0625 85.683594 99.996094 85.53125 99.863281 85.40625 C 98.957031 84.367188 96.359375 84.390625 95.5625 85.546875 Z M 77.03125 20.265625 C 79.878906 20.578125 82.742188 20.722656 85.601562 20.949219 C 89.234375 21.277344 94.875 21.8125 95.007812 19.667969 C 94.921875 19.292969 94.609375 19.070312 94.242188 18.941406 C 94.230469 18.9375 94.226562 18.933594 94.214844 18.933594 C 94.167969 18.914062 94.117188 18.902344 94.070312 18.886719 L 94.0625 18.882812 C 90.917969 17.820312 87.488281 17.933594 84.203125 17.644531 C 82.816406 17.558594 81.425781 17.550781 80.039062 17.476562 C 78.914062 17.390625 77.734375 17.3125 76.691406 17.808594 C 75.027344 18.566406 75.171875 19.953125 77.03125 20.265625 Z M 107.441406 23.4375 C 115.1875 24.320312 124.683594 25.25 127.597656 26.445312 C 131.570312 28.175781 135.128906 30.6875 139.191406 32.242188 C 139.265625 32.277344 139.347656 32.308594 139.421875 32.335938 C 139.402344 32.332031 139.394531 32.328125 139.371094 32.316406 C 139.582031 32.421875 139.800781 32.488281 140.035156 32.515625 C 140.964844 32.738281 143.148438 32.421875 142.738281 31.15625 C 142.703125 31.097656 142.648438 31.054688 142.601562 31.003906 C 142.570312 30.96875 142.542969 30.929688 142.507812 30.898438 C 142.5 30.890625 142.488281 30.882812 142.480469 30.875 C 142.4375 30.835938 142.398438 30.796875 142.351562 30.757812 C 140.542969 29.101562 138.335938 27.941406 136.179688 26.75 C 133.878906 25.503906 131.597656 24.128906 129.003906 23.503906 C 126.472656 23 123.871094 22.914062 121.308594 22.59375 C 117.378906 22.128906 113.460938 21.558594 109.527344 21.109375 C 108.402344 20.976562 107.097656 20.824219 106.148438 21.542969 C 104.902344 22.429688 106.394531 23.410156 107.441406 23.4375 Z M 74.78125 26.765625 C 79.617188 27.167969 84.386719 28.242188 89.253906 28.304688 C 89.660156 28.300781 90.066406 28.285156 90.472656 28.265625 C 91.070312 28.273438 91.683594 28.171875 92.15625 27.832031 C 92.84375 27.464844 92.652344 26.675781 91.992188 26.386719 C 90.363281 25.597656 85.734375 24.984375 82.441406 24.699219 C 80.609375 24.511719 78.777344 24.328125 76.941406 24.207031 C 76.121094 24.179688 75.277344 23.996094 74.472656 24.226562 C 72.117188 24.71875 72.605469 26.5 74.78125 26.765625 Z M 140.734375 38.457031 C 139.550781 37.625 138.363281 36.796875 137.160156 35.988281 C 136.132812 35.269531 133.296875 33.496094 131.035156 32.074219 C 129.679688 31.210938 128.285156 30.382812 126.742188 29.867188 C 123.539062 29.199219 120.242188 28.964844 117 28.503906 C 112.777344 28.046875 108.535156 27.445312 104.300781 27.214844 C 101.769531 27.300781 101.078125 29.417969 103.957031 29.867188 C 110.585938 30.410156 117.210938 30.996094 123.792969 31.960938 C 124.367188 32.054688 124.511719 32.003906 126.761719 33.417969 C 130.550781 35.933594 131.640625 36.609375 134.082031 38.386719 C 136.820312 40.167969 137.667969 42.121094 141.222656 40.820312 C 142.6875 39.972656 141.828125 39.117188 140.734375 38.457031 Z M 89.921875 33.09375 C 89.128906 32.730469 88.316406 32.414062 87.46875 32.171875 C 84.519531 31.457031 81.492188 31.09375 78.476562 30.742188 C 76.835938 30.617188 75.214844 30.054688 73.566406 30.160156 C 70.378906 30.277344 69.589844 32.910156 73.136719 33.460938 C 75.75 33.972656 78.394531 34.3125 81.035156 34.664062 C 83.4375 34.96875 85.855469 35.328125 88.285156 35.175781 C 88.507812 35.164062 88.730469 35.15625 88.953125 35.140625 L 88.957031 35.140625 C 88.964844 35.140625 88.972656 35.140625 88.980469 35.140625 C 89.0625 35.132812 89.148438 35.128906 89.234375 35.117188 L 89.222656 35.117188 C 90.90625 34.941406 91.398438 33.628906 89.921875 33.09375 Z M 100.78125 36.617188 C 107.558594 37.183594 117.902344 38.578125 120.753906 39.234375 C 122.019531 39.503906 133.097656 45.90625 135.894531 47.144531 C 136.28125 47.328125 136.695312 47.457031 137.101562 47.589844 C 137.136719 47.601562 137.171875 47.613281 137.207031 47.625 C 137.207031 47.625 137.210938 47.625 137.210938 47.625 C 137.59375 47.75 138 47.808594 138.40625 47.808594 C 139.3125 47.820312 141.019531 47.417969 140.628906 46.273438 C 140.542969 46.125 140.421875 46.007812 140.292969 45.90625 C 140.285156 45.902344 140.28125 45.898438 140.277344 45.894531 C 138.882812 44.75 126.78125 37.238281 123.15625 36.734375 C 117.082031 35.886719 109.828125 34.972656 102.09375 34.113281 C 99.640625 33.648438 97.167969 35.839844 100.78125 36.617188 Z M 137.210938 47.625 Z M 70.570312 40.417969 C 76.742188 41.359375 81.667969 42.453125 87.515625 42.101562 C 87.722656 42.105469 87.949219 42.089844 88.179688 42.058594 C 88.183594 42.058594 88.1875 42.058594 88.1875 42.058594 C 89.394531 41.886719 90.699219 41.238281 89.761719 40.167969 C 89.613281 40.054688 89.453125 39.960938 89.285156 39.878906 C 89.292969 39.875 89.269531 39.859375 89.199219 39.828125 C 87.777344 39.136719 86.203125 38.839844 84.65625 38.515625 C 81.933594 37.949219 73.023438 37.027344 71 37.101562 C 69.707031 37.148438 68.804688 37.609375 68.425781 38.179688 C 68.292969 38.382812 68.226562 38.597656 68.230469 38.808594 C 68.238281 39.488281 68.953125 40.167969 70.570312 40.417969 Z M 136.125 51.867188 C 134.035156 50.179688 130.296875 48.234375 126.847656 46.148438 C 124.71875 44.941406 123.027344 44.394531 120.609375 43.75 C 113.429688 42.785156 108.664062 42.523438 99.882812 41.28125 C 98.691406 41.175781 97.425781 40.773438 96.28125 41.285156 C 94.523438 42.1875 96.5 43.382812 97.71875 43.34375 C 103.996094 44.183594 119.453125 46.785156 119.453125 46.785156 C 119.453125 46.785156 122.960938 48.046875 125.320312 49.414062 C 129.042969 51.695312 133.097656 53.183594 136.21875 54.546875 C 136.910156 54.773438 138.472656 54.6875 138.296875 53.726562 C 138.011719 53.269531 136.964844 52.617188 136.125 51.867188 Z M 68.699219 47.164062 C 71.648438 47.664062 74.183594 48.128906 77.113281 48.71875 C 79.578125 49.195312 82.082031 49.800781 84.609375 49.523438 C 85.574219 49.460938 86.53125 49.160156 87.058594 48.378906 C 87.339844 47.683594 86.914062 47.179688 86.3125 46.851562 C 86.222656 46.800781 86.132812 46.75 86.046875 46.699219 C 84.421875 45.921875 82.601562 45.644531 80.820312 45.347656 C 77.566406 44.777344 74.726562 44.273438 71.453125 43.835938 C 69.957031 43.578125 68.214844 43.433594 66.921875 44.34375 C 66.621094 44.542969 66.429688 44.75 66.316406 44.957031 C 66.242188 45.089844 66.203125 45.222656 66.195312 45.355469 C 66.144531 46.277344 67.585938 47.085938 68.699219 47.164062 Z M 133.632812 57.535156 C 133.640625 57.542969 133.652344 57.550781 133.660156 57.558594 C 133.652344 57.550781 133.640625 57.542969 133.632812 57.539062 C 133.632812 57.539062 133.632812 57.539062 133.632812 57.535156 Z M 133.632812 57.539062 C 133.582031 57.503906 133.53125 57.46875 133.476562 57.433594 C 133.535156 57.46875 133.585938 57.503906 133.632812 57.535156 C 133.5 57.417969 133.351562 57.308594 133.179688 57.226562 C 133.1875 57.234375 133.195312 57.242188 133.203125 57.246094 C 132.964844 57.082031 132.71875 56.925781 132.457031 56.789062 C 130.867188 55.972656 129.242188 55.21875 127.613281 54.480469 C 124.671875 53.210938 121.921875 51.5 118.855469 50.515625 C 111.117188 49.25 103.253906 48.53125 95.421875 48.113281 C 92.71875 48.203125 91.980469 50.464844 95.050781 50.941406 C 101.980469 51.644531 110.652344 52.707031 117.527344 53.808594 C 118.914062 54.585938 120.300781 55.367188 121.707031 56.113281 C 124.929688 57.832031 126.066406 58.582031 127.777344 59.25 C 127.871094 59.285156 127.960938 59.324219 128.050781 59.359375 C 127.964844 59.328125 127.992188 59.339844 128.296875 59.460938 C 128.300781 59.460938 128.308594 59.464844 128.3125 59.464844 C 128.40625 59.503906 128.5 59.542969 128.59375 59.582031 C 128.53125 59.554688 128.453125 59.523438 128.378906 59.492188 C 128.652344 59.613281 128.945312 59.6875 129.230469 59.78125 C 129.335938 59.816406 129.332031 59.8125 129.28125 59.789062 C 129.996094 60.019531 130.933594 60.109375 131.792969 60 C 132.472656 59.375 133.242188 58.890625 134.0625 58.527344 C 134.074219 58.484375 134.09375 58.441406 134.101562 58.398438 C 134.058594 58.050781 133.882812 57.765625 133.632812 57.539062 Z M 65.328125 54.199219 C 68.179688 54.511719 71.042969 54.65625 73.902344 54.882812 C 77.535156 55.210938 82.75 55.695312 82.882812 53.554688 C 82.796875 53.175781 82.484375 52.957031 82.117188 52.828125 C 82.109375 52.824219 82.101562 52.820312 82.09375 52.816406 C 82.042969 52.800781 81.996094 52.789062 81.945312 52.773438 C 81.941406 52.773438 81.941406 52.769531 81.9375 52.769531 C 78.792969 51.707031 75.789062 51.867188 72.503906 51.574219 C 71.117188 51.492188 69.726562 51.480469 68.339844 51.40625 C 67.210938 51.324219 66.035156 51.246094 64.992188 51.742188 C 64.566406 51.933594 64.261719 52.167969 64.070312 52.414062 C 63.875 52.664062 63.804688 52.929688 63.847656 53.175781 C 63.933594 53.640625 64.425781 54.046875 65.328125 54.199219 Z M 116.882812 57.390625 C 114.347656 56.886719 111.746094 56.800781 109.1875 56.480469 C 105.253906 56.015625 101.335938 55.445312 97.402344 54.996094 C 96.277344 54.863281 94.972656 54.710938 94.027344 55.429688 C 92.777344 56.316406 94.273438 57.296875 95.320312 57.320312 C 103.0625 58.207031 112.558594 59.136719 115.472656 60.332031 C 119.445312 62.0625 123.003906 64.570312 127.066406 66.128906 C 127.144531 66.160156 127.226562 66.195312 127.300781 66.222656 C 127.28125 66.214844 127.269531 66.210938 127.246094 66.203125 C 127.457031 66.308594 127.679688 66.375 127.914062 66.402344 C 128.226562 66.476562 128.679688 66.488281 129.132812 66.425781 C 129.167969 65.539062 129.285156 64.730469 129.472656 64 C 127.824219 62.675781 125.921875 61.667969 124.058594 60.636719 C 121.753906 59.390625 119.476562 58.011719 116.882812 57.390625 Z M 63.925781 60.785156 C 68.761719 61.1875 72.265625 62.128906 77.128906 62.1875 C 77.535156 62.1875 77.941406 62.171875 78.351562 62.148438 C 78.945312 62.160156 79.558594 62.058594 80.035156 61.71875 C 80.71875 61.351562 80.527344 60.5625 79.871094 60.273438 C 78.238281 59.484375 74.882812 59.007812 71.585938 58.71875 C 69.753906 58.53125 67.925781 58.347656 66.085938 58.230469 C 65.265625 58.199219 64.421875 58.015625 63.617188 58.246094 C 62.886719 58.398438 62.429688 58.675781 62.210938 58.992188 C 62.097656 59.160156 62.054688 59.339844 62.066406 59.519531 C 62.113281 60.089844 62.78125 60.644531 63.925781 60.785156 Z M 91.832031 63.753906 C 98.460938 64.296875 105.089844 64.882812 111.667969 65.847656 C 112.246094 65.941406 112.390625 65.890625 114.640625 67.304688 C 118.425781 69.820312 119.515625 70.492188 121.957031 72.273438 C 124.695312 74.050781 125.542969 76.007812 129.097656 74.707031 C 130.566406 73.855469 129.703125 73.003906 128.613281 72.34375 C 127.425781 71.511719 126.238281 70.683594 125.035156 69.871094 C 124.007812 69.15625 121.175781 67.382812 118.910156 65.960938 C 117.558594 65.097656 116.160156 64.269531 114.617188 63.75 C 111.414062 63.085938 108.121094 62.851562 104.875 62.390625 C 100.652344 61.933594 96.414062 61.332031 92.175781 61.101562 C 89.644531 61.1875 88.953125 63.304688 91.832031 63.753906 Z M 62.707031 67.613281 C 65.316406 68.128906 67.960938 68.46875 70.601562 68.820312 C 73.003906 69.125 73.730469 69.214844 76.160156 69.0625 C 76.386719 69.050781 76.605469 69.042969 76.828125 69.027344 L 76.832031 69.027344 C 76.839844 69.027344 76.847656 69.027344 76.855469 69.027344 C 76.9375 69.019531 77.023438 69.015625 77.109375 69.003906 L 77.097656 69.003906 C 78.78125 68.828125 79.273438 67.515625 77.796875 66.980469 C 77.003906 66.617188 76.191406 66.300781 75.347656 66.058594 C 72.398438 65.226562 64.808594 64.253906 63.132812 64.316406 C 61.808594 64.363281 60.898438 64.847656 60.542969 65.4375 C 60.410156 65.660156 60.351562 65.894531 60.382812 66.128906 C 60.46875 66.765625 61.191406 67.378906 62.707031 67.613281 Z M 88.65625 70.503906 C 95.4375 71.070312 105.777344 72.464844 108.628906 73.121094 C 109.898438 73.386719 120.976562 79.792969 123.773438 81.03125 C 124.160156 81.214844 124.570312 81.34375 124.976562 81.476562 C 125.011719 81.488281 125.050781 81.5 125.085938 81.511719 C 125.472656 81.636719 125.878906 81.695312 126.28125 81.691406 C 127.1875 81.707031 128.898438 81.304688 128.507812 80.15625 C 128.417969 80.011719 128.300781 79.894531 128.167969 79.792969 L 128.15625 79.78125 C 126.757812 78.636719 114.660156 71.121094 111.03125 70.617188 C 104.960938 69.773438 97.703125 68.859375 89.96875 68 C 87.515625 67.53125 85.042969 69.722656 88.65625 70.503906 Z M 125.085938 81.511719 Z M 61.265625 74.574219 C 66.992188 75.53125 69.542969 76.339844 75.390625 75.988281 C 75.597656 75.992188 75.828125 75.976562 76.058594 75.945312 C 76.058594 75.945312 76.0625 75.941406 76.0625 75.941406 C 77.269531 75.773438 78.574219 75.125 77.636719 74.054688 C 77.488281 73.9375 77.328125 73.84375 77.160156 73.761719 C 77.167969 73.761719 77.144531 73.746094 77.074219 73.714844 C 75.652344 73.023438 74.082031 72.722656 72.535156 72.402344 C 68.238281 71.507812 63.839844 71.179688 61.699219 71.257812 C 60.113281 71.316406 59.121094 71.992188 58.949219 72.730469 C 58.945312 72.746094 58.941406 72.765625 58.941406 72.785156 C 58.808594 73.519531 59.503906 74.300781 61.265625 74.574219 Z M 85.597656 77.230469 C 91.875 78.070312 107.332031 80.671875 107.332031 80.671875 C 107.332031 80.671875 111.117188 83.007812 113.480469 84.378906 C 117.203125 86.660156 122.386719 89.496094 125.507812 90.855469 C 126.195312 91.085938 127.757812 90.996094 127.582031 90.039062 C 127.296875 89.582031 126.25 88.929688 125.410156 88.179688 C 123.320312 86.492188 118.453125 83.199219 115.003906 81.113281 C 112.875 79.902344 110.90625 78.28125 108.484375 77.632812 C 101.304688 76.671875 96.539062 76.410156 87.761719 75.167969 C 86.566406 75.0625 85.300781 74.660156 84.15625 75.171875 C 82.402344 76.074219 84.378906 77.269531 85.597656 77.230469 Z M 85.597656 77.230469 " fill-opacity="1" fill-rule="nonzero"/><path fill="#24a9c5" d="M 166.945312 203.507812 C 166.558594 211.210938 159.664062 215.109375 152.332031 217.367188 C 144.027344 219.925781 117.984375 223.203125 104.4375 222.425781 C 99.09375 222.121094 96.855469 221.730469 92.675781 221.199219 C 88.679688 220.824219 82.019531 219.507812 80.359375 218.871094 C 77.238281 217.992188 74.089844 216.8125 71.683594 214.507812 C 71.398438 214.121094 71.425781 214.257812 70.824219 213.242188 C 70.152344 211.808594 69.691406 210.273438 69.480469 208.691406 C 69.121094 205.742188 69.144531 202.765625 69.144531 202.765625 L 69.148438 202.765625 C 69.292969 222.148438 166.847656 217.382812 166.722656 197.28125 C 166.726562 197.285156 166.726562 197.289062 166.730469 197.292969 C 166.902344 198.097656 166.992188 202.398438 166.945312 203.507812 Z M 126.402344 172.699219 C 125.546875 159.070312 124.449219 139.527344 124.332031 132.976562 C 127.285156 132.691406 129.902344 132.4375 131.699219 132.304688 C 140.324219 131.546875 149.519531 130.976562 155.914062 124.839844 C 156.945312 123.800781 157.875 122.617188 158.410156 121.269531 C 158.8125 120.085938 158.910156 118.8125 158.773438 117.582031 C 158.613281 116.226562 157.6875 100.832031 155.339844 90.179688 C 154.953125 88.433594 154.527344 86.695312 154.074219 84.960938 C 153.171875 81.523438 152.160156 78.109375 151.097656 74.714844 C 149.707031 70.257812 148.136719 65.824219 145.984375 61.652344 C 145.488281 60.699219 144.976562 59.753906 144.417969 58.832031 C 144.125 58.351562 142.480469 57.773438 140.371094 57.601562 C 138.433594 57.441406 136.101562 57.621094 134.0625 58.527344 C 133.242188 58.890625 132.472656 59.375 131.789062 60 C 130.742188 60.964844 129.917969 62.265625 129.472656 64 C 129.285156 64.730469 129.167969 65.535156 129.132812 66.425781 C 129.035156 68.6875 129.449219 71.480469 130.589844 74.929688 C 131.203125 78.21875 131.898438 81.492188 132.621094 84.761719 C 133.375 88.191406 134.15625 91.609375 134.910156 95.039062 C 135.050781 95.691406 135.195312 96.34375 135.335938 96.996094 C 136.558594 102.261719 138.507812 107.332031 139.972656 112.535156 C 140.050781 112.78125 140.246094 113.542969 140.449219 114.464844 C 140.675781 115.492188 140.90625 116.71875 140.996094 117.683594 C 141.160156 118.679688 141.023438 120.039062 140.957031 120.484375 C 140.925781 120.585938 140.890625 120.691406 140.851562 120.792969 C 140.78125 121.003906 140.535156 121.386719 140.402344 121.59375 C 140.015625 122.003906 139.5625 122.355469 139.109375 122.695312 C 138.910156 122.8125 138.671875 122.925781 138.492188 123.011719 C 130.03125 126.917969 108.4375 125.933594 92.957031 124.863281 C 92.636719 124.761719 92.285156 124.695312 91.898438 124.671875 C 87.164062 124.363281 84.40625 120.367188 82.414062 115.222656 C 81.097656 114.761719 79.785156 114.277344 78.488281 113.761719 C 73.875 112.082031 69.542969 109.578125 65.851562 106.234375 C 65.691406 106.109375 65.550781 105.980469 65.4375 105.851562 C 65.398438 105.816406 65.359375 105.78125 65.320312 105.742188 C 68.089844 113.578125 70.875 121.054688 75.824219 127.859375 C 76.136719 128.554688 76.648438 129.277344 77.449219 129.988281 C 77.457031 129.996094 77.464844 130.003906 77.46875 130.015625 C 77.5 130.039062 77.527344 130.058594 77.558594 130.082031 C 78.167969 130.605469 78.945312 131.117188 79.917969 131.597656 C 79.9375 131.609375 79.957031 131.617188 79.976562 131.628906 C 84.289062 133.738281 92.464844 135.234375 107.710938 134.382812 C 107.726562 134.585938 107.746094 134.78125 107.777344 134.964844 C 107.660156 147.066406 107.746094 159.179688 108.3125 171.265625 C 108.363281 172.332031 108.417969 173.441406 108.480469 174.566406 C 108.769531 174.296875 109.195312 174.085938 109.816406 174 C 112.542969 173.417969 122.488281 171.144531 126.402344 172.699219 Z M 126.996094 192 C 127.234375 191.902344 127.464844 191.785156 127.679688 191.628906 C 127.722656 192.457031 127.757812 193.285156 127.785156 194.109375 C 127.792969 195.917969 128.308594 197.535156 126.828125 198.648438 C 123.707031 202.050781 110.011719 200.894531 109.695312 198.144531 C 109.664062 197.867188 109.601562 197.535156 109.699219 197.277344 C 109.792969 197.03125 109.730469 195.320312 109.589844 192.761719 C 111.945312 193.761719 115.652344 193.347656 117.625 193.339844 C 120.234375 193.171875 122.867188 193.0625 125.4375 192.457031 C 125.09375 192.535156 126.417969 192.257812 126.785156 192.09375 C 126.824219 192.078125 126.859375 192.058594 126.898438 192.042969 C 126.890625 192.046875 126.878906 192.050781 126.875 192.054688 C 126.902344 192.046875 126.929688 192.027344 126.957031 192.015625 C 126.976562 192.007812 126.996094 192 127.015625 191.992188 C 127.007812 191.996094 127.003906 191.996094 126.996094 192 Z M 127.015625 191.992188 C 127.109375 191.957031 127.226562 191.914062 127.292969 191.871094 C 127.199219 191.910156 127.105469 191.949219 127.015625 191.992188 Z M 127.015625 191.992188 " fill-opacity="1" fill-rule="nonzero"/></svg>