<svg width="48" height="48" viewBox="0 0 48 48" fill="none" xmlns="http://www.w3.org/2000/svg">
<path d="M34.4784 19.5C33.5261 19.5 32.7083 19.1583 32.025 18.475C31.3417 17.7917 31 16.9667 31 16V8C31 7.03333 31.3427 6.20833 32.0281 5.525C32.7135 4.84167 33.5375 4.5 34.5 4.5C35.4667 4.5 36.2917 4.84167 36.975 5.525C37.6583 6.20833 38 7.03333 38 8V16C38 16.9667 37.6583 17.7917 36.975 18.475C36.2917 19.1583 35.4595 19.5 34.4784 19.5ZM9 44C8.175 44 7.46875 43.7063 6.88125 43.1188C6.29375 42.5313 6 41.825 6 41V7C6 6.175 6.29375 5.46875 6.88125 4.88125C7.46875 4.29375 8.175 4 9 4H26V7H9V41H33V35.5H36V41C36 41.825 35.7063 42.5313 35.1188 43.1188C34.5313 43.7063 33.825 44 33 44H9ZM14 35.5V32.5H28V35.5H14ZM14 29.5V26.5H24V29.5H14ZM36 31.5H33V26.4C30.4667 26.0333 28.3333 24.8666 26.6 22.8999C24.8667 20.9331 24 18.6332 24 16H27C27 18.0667 27.7314 19.8333 29.1942 21.3C30.657 22.7667 32.4231 23.5 34.4925 23.5C36.5975 23.5 38.375 22.7678 39.825 21.3035C41.275 19.8393 42 18.0714 42 16H45C45 18.6333 44.1417 20.9333 42.425 22.9C40.7083 24.8667 38.5667 26.0333 36 26.4V31.5Z" fill="#215F4A"/>
</svg>
