<svg width="48" height="48" viewBox="0 0 48 48" fill="none" xmlns="http://www.w3.org/2000/svg">
<path d="M22.5 44V27.7C21.7667 27.4 21.1667 26.9167 20.7 26.25C20.2333 25.5833 20 24.8333 20 24C20 22.9 20.3917 21.9583 21.175 21.175C21.9583 20.3917 22.9 20 24 20C25.1 20 26.0417 20.3917 26.825 21.175C27.6083 21.9583 28 22.9 28 24C28 24.8333 27.7667 25.5833 27.3 26.25C26.8333 26.9167 26.2333 27.4 25.5 27.7V44H22.5ZM10.2 38.5C8.3 36.6667 6.79167 34.5083 5.675 32.025C4.55833 29.5417 4 26.8667 4 24C4 21.2333 4.525 18.6333 5.575 16.2C6.625 13.7667 8.05 11.65 9.85 9.85C11.65 8.05 13.7667 6.625 16.2 5.575C18.6333 4.525 21.2333 4 24 4C26.7667 4 29.3667 4.525 31.8 5.575C34.2333 6.625 36.35 8.05 38.15 9.85C39.95 11.65 41.375 13.7667 42.425 16.2C43.475 18.6333 44 21.2333 44 24C44 26.8667 43.4417 29.5417 42.325 32.025C41.2083 34.5083 39.7 36.6667 37.8 38.5L35.65 36.35C37.3167 34.7833 38.625 32.95 39.575 30.85C40.525 28.75 41 26.4667 41 24C41 19.2667 39.35 15.25 36.05 11.95C32.75 8.65 28.7333 7 24 7C19.2667 7 15.25 8.65 11.95 11.95C8.65 15.25 7 19.2667 7 24C7 26.4667 7.475 28.75 8.425 30.85C9.375 32.95 10.6833 34.7833 12.35 36.35L10.2 38.5ZM15.85 32.85C14.6833 31.75 13.75 30.4417 13.05 28.925C12.35 27.4083 12 25.7667 12 24C12 20.6667 13.1667 17.8333 15.5 15.5C17.8333 13.1667 20.6667 12 24 12C27.3333 12 30.1667 13.1667 32.5 15.5C34.8333 17.8333 36 20.6667 36 24C36 25.7667 35.65 27.4083 34.95 28.925C34.25 30.4417 33.3167 31.75 32.15 32.85L30 30.7C30.9333 29.8667 31.6667 28.8833 32.2 27.75C32.7333 26.6167 33 25.3667 33 24C33 21.5 32.125 19.375 30.375 17.625C28.625 15.875 26.5 15 24 15C21.5 15 19.375 15.875 17.625 17.625C15.875 19.375 15 21.5 15 24C15 25.3667 15.2667 26.6167 15.8 27.75C16.3333 28.8833 17.0667 29.8667 18 30.7L15.85 32.85Z" fill="#215F4A"/>
</svg>
